<svg width="1440" height="1140" viewBox="0 0 1440 1140" fill="none" xmlns="http://www.w3.org/2000/svg">
<g opacity="0.2">
<rect x="0.5" y="0.5" width="1438" height="1438" transform="matrix(-4.37114e-08 1 1 4.37114e-08 0.523437 -150)" stroke="#DC6F2D"/>
<rect x="0.53366" y="0.463904" width="1342.07" height="1342.07" transform="matrix(0.0697564 0.997564 0.997564 -0.0697564 3.31589 -53.5908)" stroke="#DC6F2D"/>
<rect x="0.564721" y="0.425547" width="1255.73" height="1255.73" transform="matrix(0.139173 0.990268 0.990268 -0.139173 10.3889 34.6306)" stroke="#DC6F2D"/>
<rect x="0.59303" y="0.385118" width="1169.39" height="1169.39" transform="matrix(0.207912 0.978148 0.978148 -0.207912 26.0427 118.649)" stroke="#DC6F2D"/>
<rect x="0.618449" y="0.342812" width="1092.64" height="1092.64" transform="matrix(0.275637 0.961262 0.961262 -0.275637 43.7818 194.431)" stroke="#DC6F2D"/>
<rect x="0.640856" y="0.298836" width="1015.89" height="1015.89" transform="matrix(0.34202 0.939693 0.939693 -0.34202 68.4822 265.416)" stroke="#DC6F2D"/>
<rect x="0.660141" y="0.253404" width="958.333" height="958.333" transform="matrix(0.406737 0.913545 0.913545 -0.406737 86.8894 326.154)" stroke="#DC6F2D"/>
<rect x="0.67621" y="0.206738" width="891.18" height="891.18" transform="matrix(0.469472 0.882948 0.882948 -0.469472 116.899 384.761)" stroke="#DC6F2D"/>
<rect x="0.688984" y="0.159064" width="833.62" height="833.62" transform="matrix(0.529919 0.848048 0.848048 -0.529919 145.174 436.399)" stroke="#DC6F2D"/>
<rect x="0.698401" y="0.110616" width="776.06" height="776.06" transform="matrix(0.587785 0.809017 0.809017 -0.587785 177.522 483.157)" stroke="#DC6F2D"/>
<rect x="0.704416" y="0.0616285" width="728.093" height="728.093" transform="matrix(0.642787 0.766044 0.766044 -0.642787 206.643 524.13)" stroke="#DC6F2D"/>
<rect x="0.706999" y="0.0123408" width="680.127" height="680.127" transform="matrix(0.694658 0.71934 0.71934 -0.694658 238.674 560.606)" stroke="#DC6F2D"/>
<rect x="0.706138" y="-0.0370071" width="632.16" height="632.16" transform="matrix(0.743145 0.669131 0.669131 -0.743145 273.131 592.395)" stroke="#DC6F2D"/>
<rect x="0.701836" y="-0.0861746" width="584.193" height="584.193" transform="matrix(0.788011 0.615661 0.615661 -0.788011 309.515 619.344)" stroke="#DC6F2D"/>
<rect x="0.694115" y="-0.134922" width="552.592" height="552.592" transform="matrix(0.829037 0.559193 0.559193 -0.829037 335.961 643.556)" stroke="#DC6F2D"/>
<rect x="0.683013" y="-0.183013" width="514.413" height="514.413" transform="matrix(0.866025 0.5 0.5 -0.866025 368.173 663.143)" stroke="#DC6F2D"/>
<rect x="0.668583" y="-0.230211" width="476.235" height="476.235" transform="matrix(0.898794 0.438371 0.438371 -0.898794 401.123 678.635)" stroke="#DC6F2D"/>
</g>
</svg>
