<svg width="1441" height="640" viewBox="0 0 1441 640" fill="none" xmlns="http://www.w3.org/2000/svg">
<g clip-path="url(#clip0_326_693)">
<g opacity="0.2">
<rect x="0.5" y="-0.5" width="1670" height="1670" transform="matrix(1 0 0 -1 0.761719 1326.5)" stroke="#DC6F2D"/>
<rect x="0.463904" y="-0.53366" width="1558.6" height="1558.6" transform="matrix(0.997564 -0.0697565 -0.0697565 -0.997564 112.721 1323.26)" stroke="#DC6F2D"/>
<rect x="0.425548" y="-0.564721" width="1458.34" height="1458.34" transform="matrix(0.990268 -0.139173 -0.139173 -0.990268 215.17 1315.05)" stroke="#DC6F2D"/>
<rect x="0.385118" y="-0.59303" width="1358.08" height="1358.08" transform="matrix(0.978148 -0.207912 -0.207912 -0.978148 312.742 1296.88)" stroke="#DC6F2D"/>
<rect x="0.342812" y="-0.61845" width="1268.96" height="1268.96" transform="matrix(0.961262 -0.275637 -0.275637 -0.961262 400.748 1276.29)" stroke="#DC6F2D"/>
<rect x="0.298836" y="-0.640856" width="1179.84" height="1179.84" transform="matrix(0.939693 -0.34202 -0.34202 -0.939693 483.182 1247.61)" stroke="#DC6F2D"/>
<rect x="0.253404" y="-0.660141" width="1113" height="1113" transform="matrix(0.913545 -0.406737 -0.406737 -0.913545 553.722 1226.24)" stroke="#DC6F2D"/>
<rect x="0.206738" y="-0.67621" width="1035.02" height="1035.02" transform="matrix(0.882948 -0.469472 -0.469472 -0.882948 621.785 1191.39)" stroke="#DC6F2D"/>
<rect x="0.159064" y="-0.688984" width="968.18" height="968.18" transform="matrix(0.848048 -0.529919 -0.529919 -0.848048 681.758 1158.56)" stroke="#DC6F2D"/>
<rect x="0.110616" y="-0.698401" width="901.34" height="901.34" transform="matrix(0.809017 -0.587785 -0.587785 -0.809017 736.062 1121)" stroke="#DC6F2D"/>
<rect x="0.0616284" y="-0.704416" width="845.64" height="845.64" transform="matrix(0.766044 -0.642788 -0.642788 -0.766044 783.647 1087.18)" stroke="#DC6F2D"/>
<rect x="0.0123407" y="-0.706999" width="789.94" height="789.94" transform="matrix(0.71934 -0.694658 -0.694658 -0.71934 826.012 1049.99)" stroke="#DC6F2D"/>
<rect x="-0.0370071" y="-0.706138" width="734.24" height="734.24" transform="matrix(0.669131 -0.743145 -0.743145 -0.669131 862.932 1009.98)" stroke="#DC6F2D"/>
<rect x="-0.0861746" y="-0.701836" width="678.54" height="678.54" transform="matrix(0.615661 -0.788011 -0.788011 -0.615661 894.235 967.724)" stroke="#DC6F2D"/>
<rect x="-0.134922" y="-0.694115" width="641.844" height="641.844" transform="matrix(0.559193 -0.829037 -0.829037 -0.559193 922.36 937.013)" stroke="#DC6F2D"/>
<rect x="-0.183013" y="-0.683013" width="597.51" height="597.51" transform="matrix(0.5 -0.866025 -0.866025 -0.5 945.112 899.606)" stroke="#DC6F2D"/>
<rect x="-0.230211" y="-0.668583" width="553.176" height="553.176" transform="matrix(0.438371 -0.898794 -0.898794 -0.438371 963.111 861.343)" stroke="#DC6F2D"/>
</g>
</g>
<defs>
<clipPath id="clip0_326_693">
<rect width="1440" height="640" fill="white" transform="translate(0.761719)"/>
</clipPath>
</defs>
</svg>
